<?xml version="1.0" encoding="utf-8"?>
<!-- Generator: Adobe Illustrator 16.0.0, SVG Export Plug-In . SVG Version: 6.00 Build 0)  -->
<!DOCTYPE svg PUBLIC "-//W3C//DTD SVG 1.1//EN" "http://www.w3.org/Graphics/SVG/1.1/DTD/svg11.dtd">
<svg version="1.1" id="Calque_1" xmlns="http://www.w3.org/2000/svg" xmlns:xlink="http://www.w3.org/1999/xlink" x="0px" y="0px"
	 width="180px" height="60px" viewBox="0 0 180 60" enable-background="new 0 0 180 60" xml:space="preserve">
<g>
	<polygon fill="#1E3668" points="60.058,10.162 50.163,30.735 24.805,30.735 33.541,10.162 25.711,10.162 9.033,10.162 
		9.225,16.271 24.012,16.271 15.331,36.553 53.934,36.553 66.596,10.162 	"/>
	<g>
		
			<ellipse transform="matrix(-0.8582 -0.5133 0.5133 -0.8582 57.5745 111.0246)" fill="#1E3668" cx="44.121" cy="47.561" rx="4.629" ry="7.758"/>
		
			<ellipse transform="matrix(-0.8582 -0.5133 0.5133 -0.8582 57.5745 111.0246)" fill="#1E3668" cx="44.121" cy="47.561" rx="4.629" ry="7.758"/>
		<path fill="#022049" d="M41.66,53.482c-2.194-1.311-2.189-5.356,0.01-9.034c0.976-1.63,2.219-2.914,3.491-3.723
			c-1.76,0.576-3.648,2.178-5.013,4.459c-2.199,3.677-2.204,7.722-0.01,9.033c1.222,0.73,2.867,0.459,4.464-0.558
			C43.524,54.014,42.493,53.981,41.66,53.482z"/>
		<path fill="#2D5795" d="M46.849,43.001c-0.401-0.242-1.735,0.13-3.118,1.513c1.042-0.765,1.939-0.958,2.255-0.768
			c0.544,0.325,0.919,2.72-0.853,5.682c-0.436,0.728-0.949,1.386-1.497,1.933c0.868-0.639,1.702-1.579,2.36-2.68
			C47.768,45.72,47.393,43.325,46.849,43.001z"/>
	</g>
	<g>
		
			<ellipse transform="matrix(-0.8582 -0.5133 0.5133 -0.8582 14.3631 99.0942)" fill="#1E3668" cx="20.867" cy="47.563" rx="4.629" ry="7.758"/>
		
			<ellipse transform="matrix(-0.8582 -0.5133 0.5133 -0.8582 14.3631 99.0942)" fill="#1E3668" cx="20.867" cy="47.563" rx="4.629" ry="7.758"/>
		<path fill="#022049" d="M18.406,53.486c-2.194-1.313-2.189-5.357,0.01-9.034c0.976-1.631,2.219-2.913,3.492-3.724
			c-1.761,0.575-3.649,2.178-5.013,4.459c-2.199,3.677-2.204,7.723-0.01,9.034c1.221,0.731,2.867,0.46,4.464-0.559
			C20.27,54.016,19.239,53.985,18.406,53.486z"/>
		<path fill="#2D5795" d="M23.595,43.004c-0.024-0.014-0.05-0.026-0.08-0.036c-0.475-0.155-1.73,0.25-3.03,1.543
			c0.962-0.704,1.799-0.917,2.167-0.796c0.03,0.01,0.056,0.021,0.08,0.035c0.544,0.324,0.919,2.719-0.854,5.681
			c-0.435,0.728-0.949,1.385-1.497,1.933c0.868-0.638,1.703-1.578,2.36-2.679C24.513,45.723,24.138,43.328,23.595,43.004z"/>
	</g>
</g>
<g>
	<g>
		<path fill="#1E3668" d="M99.129,3.11c0,0.315-0.762,0.81-2.283,1.485c-1.52,0.676-3.258,1.282-5.211,1.818
			C87.044,9.692,82.5,15.542,78.001,23.96l-0.442,0.829c0.221,0.037,0.479,0.055,0.774,0.055c2.249,0,4.323-0.691,6.222-2.073
			c1.898-1.383,3.051-3.051,3.457-5.005c0.073-0.295,0.175-0.443,0.304-0.443c0.11,0,0.166,0.074,0.166,0.222
			c0,1.125-0.608,2.406-1.825,3.843c-2.175,2.618-4.987,3.927-8.434,3.927c-0.332,0-0.654-0.019-0.968-0.056l-0.774,1.521
			c-1.346,2.581-2.535,4.499-3.567,5.752c-0.959,1.18-2.268,2.36-3.927,3.54c-4.627,3.281-9.365,4.922-14.213,4.922
			c-2.71,0-4.945-0.571-6.706-1.715c-1.761-1.143-2.641-2.608-2.641-4.396c0-0.958,0.272-1.774,0.816-2.447
			c0.543-0.673,1.203-1.01,1.977-1.01c1.198,0,1.797,0.627,1.797,1.881c0,0.608-0.198,1.125-0.594,1.549
			c-0.397,0.424-0.881,0.636-1.452,0.636c-0.867,0-1.299-0.415-1.299-1.244v-0.554c0-0.166-0.056-0.258-0.166-0.276
			c-0.332,0-0.498,0.471-0.498,1.41c0,1.586,0.774,2.918,2.323,3.996c1.548,1.078,3.475,1.618,5.779,1.618
			c5.548,0,10.544-2.774,14.987-8.324c1.309-1.641,3.07-4.175,5.282-7.604c-3.134-1.363-4.701-3.567-4.701-6.608
			c0-3.687,2.074-6.425,6.222-8.213c2.102-0.922,5.41-1.76,9.927-2.517l3.042-0.498l2.6-0.553c0.995-0.737,2.289-1.47,3.885-2.198
			c1.594-0.728,2.695-1.092,3.305-1.092C98.971,2.833,99.129,2.925,99.129,3.11z M90.805,6.635c-0.424,0.092-1.051,0.24-1.88,0.442
			c-0.682,0.185-1.678,0.434-2.986,0.746c-4.499,1.069-8.08,2.639-10.743,4.711c-2.664,2.072-3.996,4.315-3.996,6.728
			c0,2.321,1.134,3.96,3.401,4.918C79.485,16.388,84.887,10.54,90.805,6.635z"/>
		<path fill="#1E3668" d="M104.977,31.024c0,0.388-1.338,2.179-4.014,5.372c-2.197,2.622-3.924,3.933-5.178,3.933
			c-0.83,0-1.527-0.322-2.09-0.968c-0.563-0.645-0.844-1.438-0.844-2.378c0-0.829,0.17-1.599,0.51-2.309
			c0.342-0.71,1.23-2.116,2.67-4.218c1.492-2.212,2.24-3.622,2.24-4.23c0-0.756-0.398-1.134-1.189-1.134
			c-2.691,0-6.84,4.996-12.444,14.987c-0.903-0.073-1.447-0.11-1.631-0.11c-0.646,0-1.254,0.037-1.825,0.11l4.314-6.83
			c2.452-3.908,3.678-6.351,3.678-7.327c0-0.554-0.231-0.83-0.692-0.83c-0.942,0-2.799,1.986-5.57,5.959
			c-0.167,0.24-0.296,0.369-0.388,0.388c-0.092,0-0.148-0.056-0.166-0.166c0.018-0.093,0.055-0.167,0.111-0.222l0.526-0.692
			c2.825-3.787,4.727-5.682,5.706-5.682c0.628,0,1.163,0.286,1.606,0.857s0.665,1.254,0.665,2.047c0,1.18-0.691,2.82-2.074,4.922
			c2.175-3.005,3.848-5.061,5.02-6.167c1.17-1.105,2.254-1.659,3.248-1.659c0.811,0,1.494,0.332,2.047,0.996
			c0.553,0.663,0.83,1.483,0.83,2.461c0,1.235-0.85,3.125-2.545,5.669c-1.732,2.599-2.6,4.258-2.6,4.978
			c0,0.756,0.379,1.134,1.137,1.134c1.643,0,4.477-2.927,8.5-8.78c0.092-0.184,0.186-0.276,0.277-0.276
			C104.922,30.858,104.977,30.914,104.977,31.024z"/>
		<path d="M113.549,30.997c0,0.276-1.024,1.556-3.073,3.838c-2.104,2.356-4.974,4.557-8.61,6.601l-1.41,2.461
			c-2.857,4.885-5.678,8.471-8.461,10.757c-2.95,2.415-5.476,3.622-7.577,3.622c-1.88,0-2.821-0.866-2.821-2.599
			c0-2.12,1.429-4.296,4.286-6.526c1.567-1.217,2.895-2.139,3.982-2.765c1.678-0.959,4.259-2.185,7.743-3.679l0.387-0.193l4.839-8.6
			c1.346-2.341,3.079-5.346,5.199-9.015c0.516,0.129,0.949,0.193,1.3,0.193c0.516,0,1.198-0.064,2.046-0.193
			c-1.475,2.396-3.705,6.176-6.691,11.337l-2.544,4.646c2.375-1.326,4.313-2.651,5.813-3.977c1.5-1.326,3.125-3.148,4.875-5.468
			c0.221-0.368,0.413-0.553,0.579-0.553C113.479,30.886,113.525,30.923,113.549,30.997z M97.773,43.039
			c-5.254,2.673-8.591,4.498-10.011,5.476c-3.853,2.654-5.779,5.078-5.779,7.272c0,0.59,0.221,1.083,0.664,1.479
			s0.996,0.595,1.659,0.595c1.936,0,3.854-1.079,5.752-3.235c1.604-1.808,4.065-5.485,7.383-11.033L97.773,43.039z M114.31,19.646
			c0,0.627-0.272,1.208-0.816,1.742c-0.544,0.535-1.138,0.802-1.783,0.802c-0.756,0-1.134-0.396-1.134-1.189
			c0-0.59,0.271-1.162,0.815-1.715c0.544-0.553,1.12-0.83,1.729-0.83C113.913,18.456,114.31,18.853,114.31,19.646z"/>
		<path d="M127.458,31.052c0,0.056-0.166,0.295-0.498,0.719l-1.189,1.49c-3.819,4.713-7.095,7.068-9.825,7.068
			c-1.292,0-2.376-0.466-3.253-1.396c-0.876-0.931-1.314-2.097-1.314-3.498c0-3.318,2.313-6.239,6.941-8.766
			c2.434-1.327,4.415-1.991,5.945-1.991c0.663,0,1.23,0.198,1.7,0.595c0.471,0.396,0.705,0.881,0.705,1.452
			c0,1.327-0.866,2.456-2.599,3.387c-1.733,0.932-4.628,1.803-8.684,2.613c-1.254,1.899-1.88,3.484-1.88,4.757
			c0,1.585,0.857,2.378,2.574,2.378c2.915,0,6.486-2.844,10.712-8.531c0.222-0.295,0.406-0.442,0.554-0.442
			C127.421,30.904,127.458,30.96,127.458,31.052z M125.122,25.923c0-0.59-0.323-0.886-0.968-0.886c-0.978,0-2.264,0.678-3.858,2.033
			c-1.595,1.354-3.156,3.11-4.687,5.268c2.654-0.682,4.903-1.646,6.747-2.89C124.199,28.204,125.122,27.028,125.122,25.923z"/>
		<path d="M136.791,20.295c0,0.735-1.152,2.196-3.457,4.383c-0.11,0.572-0.166,1.069-0.166,1.493c0,1.069,0.488,2.766,1.466,5.089
			c0.498,1.161,0.747,2.139,0.747,2.931c0,1.659-0.807,3.097-2.42,4.313s-3.525,1.825-5.738,1.825c-1.254,0-2.253-0.354-3-1.064
			c-0.747-0.709-1.12-1.663-1.12-2.862c0-1.382,0.493-2.728,1.479-4.037c0.986-1.309,2.005-1.963,3.056-1.963
			c0.185,0,0.35,0.037,0.498,0.11l2.212-2.71c0.664-0.792,1.549-1.89,2.654-3.291c0.313-1.29,0.793-2.396,1.438-3.318
			c0.645-0.921,1.281-1.383,1.908-1.383C136.643,19.811,136.791,19.973,136.791,20.295z M132.947,31.204
			c0-0.553-0.019-1.102-0.056-1.646c-0.037-0.543-0.056-1.322-0.056-2.337c0-0.829,0.037-1.521,0.111-2.073
			c-1.033,1.309-2.526,3.152-4.479,5.53c0.35,0.295,0.525,0.654,0.525,1.078c0,1.088-0.895,1.825-2.683,2.213
			c-0.719,0.165-1.341,0.558-1.866,1.175c-0.526,0.618-0.789,1.268-0.789,1.949c0,0.738,0.268,1.355,0.803,1.853
			c0.534,0.498,1.198,0.747,1.99,0.747c1.549,0,3.019-0.898,4.411-2.696C132.251,35.2,132.947,33.269,132.947,31.204z"/>
		<path d="M148.681,24.678l-0.221,0.415h-3.622l-6.167,10.536c-0.756,1.271-1.134,2.285-1.134,3.041c0,0.83,0.434,1.245,1.302,1.245
			c1.68,0,4.513-2.927,8.501-8.78c0.129-0.184,0.239-0.276,0.332-0.276c0.11,0,0.166,0.056,0.166,0.166
			c-0.019,0.056-0.11,0.203-0.276,0.443l-1.19,1.634c-3.47,4.818-6.082,7.228-7.835,7.228c-0.867,0-1.592-0.313-2.173-0.939
			c-0.582-0.627-0.872-1.411-0.872-2.351c0-1.106,0.488-2.489,1.465-4.148l4.646-7.798h-2.821l0.276-0.415h2.766l3.235-5.364
			c0.553,0.148,1.078,0.221,1.576,0.221c0.516,0,1.051-0.073,1.604-0.221l-3.18,5.364H148.681z"/>
		<path d="M157.295,31.024c-0.019,0.056-0.11,0.203-0.276,0.443l-1.19,1.634c-3.47,4.818-6.118,7.228-7.945,7.228
			c-0.867,0-1.592-0.309-2.173-0.926c-0.582-0.618-0.872-1.388-0.872-2.31c0-1.068,0.636-2.691,1.907-4.866l4.314-7.328
			c0.571,0.129,1.022,0.193,1.354,0.193c0.498,0,1.198-0.064,2.102-0.193l-6.276,10.314c-0.904,1.493-1.355,2.646-1.355,3.456
			c0,0.83,0.434,1.245,1.302,1.245c1.643,0,4.531-2.927,8.667-8.78c0.092-0.184,0.185-0.276,0.276-0.276
			C157.239,30.858,157.295,30.914,157.295,31.024z M156.895,19.59c0,0.646-0.272,1.249-0.816,1.812s-1.139,0.843-1.783,0.843
			c-0.83,0-1.244-0.415-1.244-1.244c0-0.608,0.285-1.194,0.856-1.756c0.571-0.562,1.171-0.843,1.798-0.843
			C156.497,18.401,156.895,18.797,156.895,19.59z"/>
		<path d="M171.066,31.024c0,0.24-1.301,1.791-3.902,4.652c-2.842,3.102-5.259,4.652-7.251,4.652c-1.292,0-2.399-0.493-3.321-1.479
			c-0.923-0.985-1.385-2.161-1.385-3.525c0-1.549,0.627-3.152,1.881-4.812c1.253-1.659,2.94-3.088,5.061-4.286
			c1.788-1.032,3.244-1.549,4.369-1.549c1.364,0,2.046,0.812,2.046,2.434c0,1.272-0.429,2.544-1.286,3.816
			c-0.856,1.271-1.71,1.908-2.558,1.908c-0.829,0-1.244-0.415-1.244-1.245c0-0.977,0.848-1.88,2.544-2.71
			c1.309-0.645,1.964-1.493,1.964-2.544c0-0.829-0.452-1.244-1.355-1.244c-1.53,0-3.411,1.521-5.641,4.563
			c-2.231,3.042-3.347,5.596-3.347,7.66c0,1.732,0.813,2.6,2.437,2.6c2.547,0,5.997-2.871,10.353-8.614
			c0.24-0.295,0.415-0.442,0.526-0.442C171.029,30.877,171.066,30.933,171.066,31.024z"/>
	</g>
</g>
</svg>
